<svg width="51" height="51" viewBox="0 0 51 51" fill="none" xmlns="http://www.w3.org/2000/svg">
<path d="M25.5013 0C11.416 0 0 11.416 0 25.4987C-0.000348732 28.8477 0.659025 32.1639 1.94046 35.258C3.2219 38.3521 5.1003 41.1635 7.46839 43.5316C9.83648 45.8997 12.6479 47.7781 15.742 49.0595C18.8361 50.341 22.1523 51.0003 25.5013 51C39.5814 51 51 39.584 51 25.4987C51 11.416 39.5814 0 25.5013 0ZM5.31222 25.4987C5.31297 21.6764 6.39887 17.9329 8.44364 14.7036C10.4884 11.4743 13.408 8.89183 16.8628 7.25665C20.3176 5.62147 24.1657 5.00076 27.9595 5.4667C31.7532 5.93264 35.3367 7.4661 38.2932 9.8887L9.8887 38.2932C6.92427 34.6889 5.30628 30.1654 5.31222 25.4987ZM25.4987 45.6825C20.8337 45.6897 16.3119 44.0725 12.7095 41.1086L41.114 12.7068C43.5352 15.6637 45.0674 19.2472 45.5323 23.0406C45.9971 26.834 45.3756 30.6814 43.74 34.1354C42.1044 37.5895 39.5218 40.5082 36.2927 42.5524C33.0635 44.5965 29.3204 45.6819 25.4987 45.6825Z" fill="white"/>
<path d="M25.5013 0C11.416 0 0 11.416 0 25.4987C-0.000348732 28.8477 0.659025 32.1639 1.94046 35.258C3.2219 38.3521 5.1003 41.1635 7.46839 43.5316C9.83648 45.8997 12.6479 47.7781 15.742 49.0595C18.8361 50.341 22.1523 51.0003 25.5013 51C39.5814 51 51 39.584 51 25.4987C51 11.416 39.5814 0 25.5013 0ZM5.31222 25.4987C5.31297 21.6764 6.39887 17.9329 8.44364 14.7036C10.4884 11.4743 13.408 8.89183 16.8628 7.25665C20.3176 5.62147 24.1657 5.00076 27.9595 5.4667C31.7532 5.93264 35.3367 7.4661 38.2932 9.8887L9.8887 38.2932C6.92427 34.6889 5.30628 30.1654 5.31222 25.4987ZM25.4987 45.6825C20.8337 45.6897 16.3119 44.0725 12.7095 41.1086L41.114 12.7068C43.5352 15.6637 45.0674 19.2472 45.5323 23.0406C45.9971 26.834 45.3756 30.6814 43.74 34.1354C42.1044 37.5895 39.5218 40.5082 36.2927 42.5524C33.0635 44.5965 29.3204 45.6819 25.4987 45.6825Z" stroke="white"/>
</svg>
