<svg width="26" height="26" viewBox="0 0 26 26" fill="none" xmlns="http://www.w3.org/2000/svg">
<path d="M21.937 13.6175V13V12.3743L23.497 11.0093C23.7846 10.7559 23.9733 10.4089 24.0298 10.0298C24.0863 9.65066 24.007 9.26375 23.8058 8.93746L21.8883 5.68746C21.7458 5.44068 21.5409 5.2357 21.2942 5.09309C21.0475 4.95048 20.7676 4.87526 20.4827 4.87496C20.3061 4.87361 20.1304 4.90105 19.9627 4.95621L17.9883 5.62246C17.6474 5.39595 17.2918 5.19237 16.9239 5.01309L16.5095 2.96559C16.4352 2.59152 16.2317 2.2555 15.9347 2.01635C15.6376 1.7772 15.2658 1.65016 14.8845 1.65746H11.082C10.7007 1.65016 10.329 1.7772 10.0319 2.01635C9.73483 2.2555 9.53133 2.59152 9.45703 2.96559L9.04266 5.01309C8.6721 5.19233 8.31382 5.3959 7.97016 5.62246L6.03641 4.92371C5.86684 4.87953 5.69124 4.86307 5.51641 4.87496C5.23144 4.87526 4.95157 4.95048 4.70485 5.09309C4.45814 5.2357 4.25327 5.44068 4.11078 5.68746L2.19328 8.93746C2.00364 9.26327 1.93316 9.64487 1.99394 10.0169C2.05471 10.389 2.24295 10.7283 2.52641 10.9768L4.06203 12.3825V13.6256L2.52641 14.9906C2.23494 15.2408 2.04155 15.5863 1.98057 15.9655C1.91959 16.3448 1.99495 16.7335 2.19328 17.0625L4.11078 20.3125C4.25327 20.5592 4.45814 20.7642 4.70485 20.9068C4.95157 21.0494 5.23144 21.1247 5.51641 21.125C5.69301 21.1263 5.86864 21.0989 6.03641 21.0437L8.01078 20.3775C8.35166 20.604 8.70724 20.8076 9.07516 20.9868L9.48953 23.0343C9.56383 23.4084 9.76733 23.7444 10.0644 23.9836C10.3615 24.2227 10.7332 24.3498 11.1145 24.3425H14.9495C15.3308 24.3498 15.7026 24.2227 15.9997 23.9836C16.2967 23.7444 16.5002 23.4084 16.5745 23.0343L16.9889 20.9868C17.3595 20.8076 17.7177 20.604 18.0614 20.3775L20.0277 21.0437C20.1954 21.0989 20.3711 21.1263 20.5477 21.125C20.8326 21.1247 21.1125 21.0494 21.3592 20.9068C21.6059 20.7642 21.8108 20.5592 21.9533 20.3125L23.8058 17.0625C23.9954 16.7367 24.0659 16.3551 24.0051 15.983C23.9444 15.611 23.7561 15.2716 23.4727 15.0231L21.937 13.6175ZM20.4827 19.5L17.6958 18.5575C17.0434 19.1101 16.2978 19.542 15.4939 19.8331L14.917 22.75H11.082L10.5052 19.8656C9.70763 19.5662 8.96605 19.135 8.31141 18.59L5.51641 19.5L3.59891 16.25L5.80891 14.3C5.65868 13.4589 5.65868 12.5979 5.80891 11.7568L3.59891 9.74996L5.51641 6.49996L8.30328 7.44246C8.95567 6.88988 9.70127 6.45792 10.5052 6.16684L11.082 3.24996H14.917L15.4939 6.13434C16.2914 6.43368 17.033 6.86489 17.6877 7.40996L20.4827 6.49996L22.4002 9.74996L20.1902 11.7C20.3404 12.541 20.3404 13.402 20.1902 14.2431L22.4002 16.25L20.4827 19.5Z" fill="#C9E6F2" fill-opacity="0.62"/>
<path d="M13 17.875C12.0358 17.875 11.0933 17.5891 10.2916 17.0534C9.48991 16.5177 8.86507 15.7564 8.49609 14.8656C8.12711 13.9748 8.03057 12.9946 8.21867 12.0489C8.40678 11.1033 8.87108 10.2346 9.55286 9.55286C10.2346 8.87108 11.1033 8.40678 12.0489 8.21867C12.9946 8.03057 13.9748 8.12711 14.8656 8.49609C15.7564 8.86507 16.5177 9.48991 17.0534 10.2916C17.5891 11.0933 17.875 12.0358 17.875 13C17.8815 13.642 17.7599 14.2789 17.5172 14.8733C17.2745 15.4677 16.9157 16.0077 16.4617 16.4617C16.0077 16.9157 15.4677 17.2745 14.8733 17.5172C14.2789 17.7599 13.642 17.8815 13 17.875ZM13 9.75C12.5705 9.74 12.1434 9.81722 11.7445 9.97701C11.3457 10.1368 10.9834 10.3758 10.6796 10.6796C10.3758 10.9834 10.1368 11.3457 9.97701 11.7445C9.81722 12.1434 9.74 12.5705 9.75 13C9.74 13.4295 9.81722 13.8566 9.97701 14.2555C10.1368 14.6543 10.3758 15.0166 10.6796 15.3204C10.9834 15.6242 11.3457 15.8632 11.7445 16.023C12.1434 16.1828 12.5705 16.26 13 16.25C13.4295 16.26 13.8566 16.1828 14.2555 16.023C14.6543 15.8632 15.0166 15.6242 15.3204 15.3204C15.6242 15.0166 15.8632 14.6543 16.023 14.2555C16.1828 13.8566 16.26 13.4295 16.25 13C16.26 12.5705 16.1828 12.1434 16.023 11.7445C15.8632 11.3457 15.6242 10.9834 15.3204 10.6796C15.0166 10.3758 14.6543 10.1368 14.2555 9.97701C13.8566 9.81722 13.4295 9.74 13 9.75Z" fill="#C9E6F2" fill-opacity="0.62"/>
</svg>
