<svg width="38" height="44" viewBox="0 0 38 44" fill="none" xmlns="http://www.w3.org/2000/svg">
<path d="M24.4277 4.35707C24.4277 3.27726 24.8567 2.24168 25.6202 1.47814C26.3838 0.714597 27.4194 0.285645 28.4992 0.285645H33.9277C35.0075 0.285645 36.0431 0.714597 36.8067 1.47814C37.5702 2.24168 37.9992 3.27726 37.9992 4.35707V39.6428C37.9992 40.7226 37.5702 41.7582 36.8067 42.5217C36.0431 43.2853 35.0075 43.7142 33.9277 43.7142H28.4992C27.4194 43.7142 26.3838 43.2853 25.6202 42.5217C24.8567 41.7582 24.4277 40.7226 24.4277 39.6428V4.35707Z" fill="white"/>
<path d="M0 4.35707C0 3.27726 0.428953 2.24168 1.19249 1.47814C1.95603 0.714597 2.99162 0.285645 4.07143 0.285645H9.5C10.5798 0.285645 11.6154 0.714597 12.3789 1.47814C13.1425 2.24168 13.5714 3.27726 13.5714 4.35707V39.6428C13.5714 40.7226 13.1425 41.7582 12.3789 42.5217C11.6154 43.2853 10.5798 43.7142 9.5 43.7142H4.07143C2.99162 43.7142 1.95603 43.2853 1.19249 42.5217C0.428953 41.7582 0 40.7226 0 39.6428V4.35707Z" fill="white"/>
</svg>
