<svg width="44" height="44" viewBox="0 0 44 44" fill="none" xmlns="http://www.w3.org/2000/svg">
<path d="M42.1606 19.0012L4.73833 0.30879C4.23348 0.0751242 3.67815 -0.0286887 3.12289 0.00680081C2.56763 0.0422904 2.03007 0.215956 1.55914 0.511987C1.08822 0.808019 0.698894 1.21702 0.4266 1.70175C0.154306 2.18648 0.00769524 2.73154 0.000113155 3.28733V40.656C-0.00460149 41.2265 0.138085 41.7886 0.414382 42.2879C0.69068 42.7872 1.09124 43.2069 1.57736 43.5064C2.06347 43.8059 2.61869 43.975 3.18936 43.9974C3.76003 44.0199 4.32685 43.8949 4.83503 43.6345L42.1606 24.9421C42.7135 24.6649 43.1783 24.2395 43.5031 23.7135C43.828 23.1875 44 22.5816 44 21.9636C44 21.3456 43.828 20.7397 43.5031 20.2137C43.1783 19.6877 42.7135 19.2623 42.1606 18.9851V19.0012Z" fill="white"/>
</svg>
